<svg width="130.254" height="17" viewBox="0 0 130.254 17" xmlns="http://www.w3.org/2000/svg"><g id="svgGroup" stroke-linecap="round" fill-rule="evenodd" font-size="9pt" stroke="#000" stroke-width="0.25mm" fill="none" style="stroke:#000;stroke-width:0.25mm;fill:none"><path d="M 0.901 12.053 A 2.636 2.636 0 0 0 1.691 12.63 Q 2.5 13.022 3.723 13.022 A 4.818 4.818 0 0 0 4.57 12.944 A 6.243 6.243 0 0 0 5.525 12.691 A 5.137 5.137 0 0 0 6.08 12.46 A 5.748 5.748 0 0 0 7.31 11.645 A 4.489 4.489 0 0 0 7.97 10.939 A 3.246 3.246 0 0 0 8.109 11.466 A 2.014 2.014 0 0 0 8.551 12.189 A 2.144 2.144 0 0 0 9.303 12.697 A 2.328 2.328 0 0 0 10.166 12.852 A 2.955 2.955 0 0 0 10.495 12.834 A 2.303 2.303 0 0 0 11.603 12.419 A 4.24 4.24 0 0 0 12.109 11.989 A 5.221 5.221 0 0 0 12.699 11.288 A 2.909 2.909 0 0 0 12.715 11.411 Q 12.756 11.673 12.841 11.889 A 1.499 1.499 0 0 0 13.218 12.453 A 1.457 1.457 0 0 0 13.869 12.796 A 2.073 2.073 0 0 0 14.365 12.852 A 2.852 2.852 0 0 0 15.472 12.621 A 3.953 3.953 0 0 0 16.227 12.198 A 2.387 2.387 0 0 0 16.385 12.075 A 3.266 3.266 0 0 0 16.61 11.861 L 16.422 12.75 L 18.87 12.75 L 20.026 7.293 A 4.898 4.898 0 0 1 20.075 7.135 Q 20.166 6.858 20.281 6.627 A 2.676 2.676 0 0 1 20.57 6.163 A 1.387 1.387 0 0 1 20.795 5.932 A 0.874 0.874 0 0 1 21.352 5.729 A 0.835 0.835 0 0 1 21.379 5.73 Q 21.847 5.745 21.941 6.29 A 1.819 1.819 0 0 1 21.964 6.596 A 2.234 2.234 0 0 1 21.964 6.629 Q 21.96 6.865 21.908 7.191 A 7.939 7.939 0 0 1 21.845 7.531 Q 21.726 8.109 21.59 8.704 Q 21.562 8.801 21.495 9.099 A 40.239 40.239 0 0 0 21.463 9.248 Q 21.369 9.673 21.284 10.124 Q 21.199 10.574 21.199 10.931 A 2.556 2.556 0 0 0 21.211 11.18 A 1.939 1.939 0 0 0 21.684 12.3 A 1.417 1.417 0 0 0 22.085 12.616 Q 22.527 12.852 23.205 12.852 A 2.496 2.496 0 0 0 24.207 12.639 A 3.315 3.315 0 0 0 24.914 12.215 A 2.294 2.294 0 0 0 25.172 11.98 A 3.62 3.62 0 0 0 25.613 11.397 A 3.246 3.246 0 0 0 25.636 11.466 A 2.014 2.014 0 0 0 26.078 12.189 A 2.144 2.144 0 0 0 26.83 12.697 A 2.328 2.328 0 0 0 27.693 12.852 A 2.989 2.989 0 0 0 27.911 12.844 A 2.386 2.386 0 0 0 29.147 12.41 Q 29.767 11.968 30.209 11.288 A 2.724 2.724 0 0 0 30.214 11.323 Q 30.255 11.583 30.34 11.796 A 1.473 1.473 0 0 0 30.745 12.376 Q 31.178 12.75 31.875 12.75 A 2.972 2.972 0 0 0 33.787 12.101 A 3.963 3.963 0 0 0 34.483 11.357 A 2.486 2.486 0 0 0 34.575 11.728 A 1.595 1.595 0 0 0 34.944 12.342 A 1.638 1.638 0 0 0 35.661 12.771 A 2.12 2.12 0 0 0 36.261 12.852 A 3.111 3.111 0 0 0 37.402 12.627 A 4.335 4.335 0 0 0 38.216 12.198 Q 38.62 11.929 38.964 11.462 A 5.19 5.19 0 0 0 39.06 11.326 A 3.204 3.204 0 0 0 39.081 11.39 A 2.005 2.005 0 0 0 39.593 12.198 A 2.132 2.132 0 0 0 39.932 12.457 Q 40.294 12.681 40.766 12.778 A 3.885 3.885 0 0 0 41.548 12.852 Q 43.552 12.852 45.09 11.227 A 8.744 8.744 0 0 0 45.156 11.156 A 2.164 2.164 0 0 0 45.373 11.722 A 1.904 1.904 0 0 0 45.708 12.167 A 2.294 2.294 0 0 0 46.206 12.538 Q 46.539 12.724 46.962 12.8 A 3.518 3.518 0 0 0 47.583 12.852 Q 48.314 12.852 49.037 12.606 Q 49.759 12.359 50.252 11.832 A 9.936 9.936 0 0 0 52.021 10.555 A 3.926 3.926 0 0 0 52.02 10.676 A 2.829 2.829 0 0 0 52.089 11.32 A 1.857 1.857 0 0 0 52.632 12.283 A 1.843 1.843 0 0 0 53.036 12.567 Q 53.335 12.723 53.715 12.794 A 3.753 3.753 0 0 0 54.4 12.852 A 5.023 5.023 0 0 0 55.288 12.777 A 3.588 3.588 0 0 0 57.112 11.9 Q 58.157 10.948 58.608 9.614 Q 59.058 8.279 59.058 7.106 A 6.535 6.535 0 0 0 59.003 6.223 Q 58.726 4.199 57.052 4.199 Q 56.746 4.199 56.44 4.293 Q 56.134 4.386 55.658 4.675 L 56.474 0.85 L 53.958 1.19 L 52.139 9.707 Q 51.714 10.098 50.915 10.557 Q 50.983 10.302 50.983 9.911 Q 50.983 9.567 50.935 8.907 A 44.279 44.279 0 0 0 50.898 8.432 A 128.613 128.613 0 0 1 50.724 5.988 A 102.049 102.049 0 0 1 50.609 3.723 L 48.093 4.063 A 38.228 38.228 0 0 1 47.754 5.094 A 31.959 31.959 0 0 1 47.158 6.69 Q 46.665 7.905 46.002 9.095 A 1.448 1.448 0 0 0 45.631 9.363 A 1.886 1.886 0 0 0 45.365 9.699 A 1.64 1.64 0 0 0 45.166 10.155 A 2.013 2.013 0 0 0 45.149 10.225 A 8.146 8.146 0 0 1 44.717 10.618 A 5.174 5.174 0 0 1 44.209 10.999 A 2.54 2.54 0 0 1 43.414 11.337 A 3.312 3.312 0 0 1 42.636 11.424 A 2.263 2.263 0 0 1 42.328 11.404 Q 42.156 11.381 42.019 11.329 A 0.861 0.861 0 0 1 41.701 11.127 Q 41.483 10.902 41.43 10.374 A 3.758 3.758 0 0 1 41.412 9.996 A 2.493 2.493 0 0 1 41.413 9.943 Q 41.416 9.803 41.433 9.523 A 36.726 36.726 0 0 1 41.446 9.316 Q 42.466 9.248 43.367 8.764 A 4.658 4.658 0 0 0 43.423 8.733 A 3.999 3.999 0 0 0 44.812 7.48 Q 45.356 6.681 45.356 5.729 A 2.33 2.33 0 0 0 45.321 5.313 Q 45.1 4.097 43.486 4.097 Q 41.888 4.097 40.851 5.126 Q 39.814 6.154 39.355 7.565 Q 39.126 8.271 39.011 8.917 A 7.053 7.053 0 0 0 38.896 10.149 A 4.776 4.776 0 0 0 38.897 10.262 A 2.218 2.218 0 0 1 38.505 10.787 Q 38.08 11.203 37.587 11.203 A 1.835 1.835 0 0 1 37.541 11.203 Q 37.203 11.194 37.052 11.059 A 0.421 0.421 0 0 1 36.944 10.903 Q 36.89 10.771 36.89 10.574 A 2.366 2.366 0 0 1 36.893 10.449 A 2.041 2.041 0 0 1 36.958 10.03 L 38.182 4.25 L 35.734 4.25 L 34.578 9.707 Q 34.47 10.068 34.32 10.353 A 2.377 2.377 0 0 1 34.026 10.795 A 1.444 1.444 0 0 1 33.912 10.914 A 1.013 1.013 0 0 1 33.201 11.203 A 1.835 1.835 0 0 1 33.155 11.203 Q 32.817 11.194 32.666 11.059 A 0.421 0.421 0 0 1 32.558 10.903 Q 32.504 10.771 32.504 10.574 A 2.366 2.366 0 0 1 32.507 10.449 A 2.041 2.041 0 0 1 32.572 10.03 L 34.527 0.85 L 32.011 1.19 L 31.178 5.1 L 31.178 5.032 A 0.715 0.715 0 0 0 31.045 4.603 A 0.857 0.857 0 0 0 30.838 4.403 Q 30.498 4.165 29.801 4.165 Q 28.424 4.165 27.43 5.126 A 5.839 5.839 0 0 0 26.963 5.632 A 6.235 6.235 0 0 0 25.934 7.472 A 9.096 9.096 0 0 0 25.625 8.503 A 7.096 7.096 0 0 0 25.432 10.115 A 5.062 5.062 0 0 0 25.432 10.206 A 6.494 6.494 0 0 1 25.416 10.239 Q 25.229 10.613 25.041 10.838 A 0.981 0.981 0 0 1 24.612 11.14 A 1.149 1.149 0 0 1 24.225 11.203 Q 24.02 11.203 23.882 11.147 A 0.45 0.45 0 0 1 23.698 11.016 Q 23.595 10.89 23.561 10.693 A 1.216 1.216 0 0 1 23.545 10.489 A 1.684 1.684 0 0 1 23.546 10.43 Q 23.553 10.242 23.6 9.978 A 6.887 6.887 0 0 1 23.656 9.699 A 27.319 27.319 0 0 1 23.669 9.636 A 29.822 29.822 0 0 1 23.902 8.67 A 40.775 40.775 0 0 0 24.03 8.154 Q 24.16 7.614 24.242 7.2 A 7.874 7.874 0 0 0 24.249 7.162 Q 24.303 6.881 24.331 6.624 A 4.834 4.834 0 0 0 24.361 6.103 Q 24.361 5.645 24.247 5.297 A 1.489 1.489 0 0 0 23.851 4.658 Q 23.524 4.353 23.051 4.244 A 2.556 2.556 0 0 0 22.474 4.182 A 2.436 2.436 0 0 0 21.193 4.536 A 3.097 3.097 0 0 0 20.485 5.134 L 20.672 4.25 L 18.224 4.25 L 17.065 9.719 A 4.899 4.899 0 0 1 17.019 9.869 Q 16.824 10.472 16.516 10.863 A 1.443 1.443 0 0 1 16.345 11.046 A 0.955 0.955 0 0 1 15.691 11.305 Q 15.146 11.305 15.027 10.859 A 1.107 1.107 0 0 1 14.994 10.574 A 2.366 2.366 0 0 1 14.997 10.449 A 2.041 2.041 0 0 1 15.062 10.03 L 16.286 4.25 L 13.838 4.25 L 13.651 5.151 L 13.651 5.032 A 0.715 0.715 0 0 0 13.518 4.603 A 0.857 0.857 0 0 0 13.311 4.403 Q 12.971 4.165 12.274 4.165 Q 10.897 4.165 9.903 5.126 A 5.839 5.839 0 0 0 9.436 5.632 A 6.235 6.235 0 0 0 8.407 7.472 A 9.096 9.096 0 0 0 8.098 8.503 A 7.096 7.096 0 0 0 7.906 10.022 A 4.262 4.262 0 0 1 6.715 10.948 Q 5.865 11.39 4.862 11.39 A 3.415 3.415 0 0 1 4.528 11.374 Q 4.224 11.345 3.981 11.258 A 1.375 1.375 0 0 1 3.264 10.71 A 2.322 2.322 0 0 1 2.998 10.124 Q 2.822 9.553 2.822 8.738 A 12.534 12.534 0 0 1 2.881 7.53 A 14.729 14.729 0 0 1 3.324 5.134 A 15.128 15.128 0 0 1 3.463 4.647 Q 3.68 3.933 3.948 3.321 A 8.505 8.505 0 0 1 4.641 2.032 A 5.671 5.671 0 0 1 4.683 1.969 Q 5.48 0.799 6.358 0.799 A 1.78 1.78 0 0 1 6.535 0.808 Q 6.691 0.823 6.817 0.867 A 0.755 0.755 0 0 1 7.149 1.088 A 0.995 0.995 0 0 1 7.358 1.504 A 1.395 1.395 0 0 1 7.395 1.836 Q 7.395 2.329 7.157 2.788 Q 7.018 3.057 6.855 3.221 A 0.927 0.927 0 0 1 6.613 3.4 A 1.139 1.139 0 0 0 7.135 3.772 A 1.363 1.363 0 0 0 7.582 3.842 A 1.484 1.484 0 0 0 7.87 3.816 A 0.936 0.936 0 0 0 8.483 3.426 A 1.374 1.374 0 0 0 8.632 3.143 Q 8.772 2.787 8.772 2.278 A 2.838 2.838 0 0 0 8.723 1.737 A 1.813 1.813 0 0 0 7.99 0.561 A 2.576 2.576 0 0 0 7.657 0.359 Q 6.953 0 5.933 0 A 5.594 5.594 0 0 0 5.71 0.004 A 4.347 4.347 0 0 0 2.542 1.471 A 8.397 8.397 0 0 0 1.779 2.447 A 9.229 9.229 0 0 0 0.604 4.998 Q 0 7.055 0 8.84 A 10.597 10.597 0 0 0 0.003 9.115 Q 0.035 10.333 0.352 11.147 A 2.809 2.809 0 0 0 0.901 12.053 Z M 63.206 12.818 L 63.41 11.9 Q 62.917 12.444 62.407 12.648 Q 61.897 12.852 61.37 12.852 A 2.12 2.12 0 0 1 60.77 12.771 A 1.638 1.638 0 0 1 60.053 12.342 Q 59.551 11.832 59.551 10.812 A 3.481 3.481 0 0 1 59.564 10.522 Q 59.592 10.198 59.675 9.769 A 11.22 11.22 0 0 1 59.687 9.707 L 60.843 4.25 L 63.291 4.25 L 62.067 10.03 Q 62.016 10.234 62.016 10.455 Q 62.016 11.181 62.496 11.202 A 0.665 0.665 0 0 0 62.526 11.203 A 0.964 0.964 0 0 0 63.154 10.97 A 1.387 1.387 0 0 0 63.308 10.821 A 2.309 2.309 0 0 0 63.61 10.384 Q 63.722 10.176 63.812 9.927 A 4.084 4.084 0 0 0 63.852 9.809 L 65.042 4.25 L 67.49 4.25 L 65.807 12.138 A 3.476 3.476 0 0 0 66.501 11.823 A 2.702 2.702 0 0 0 67.116 11.322 A 2.91 2.91 0 0 0 67.464 10.84 Q 67.615 10.583 67.748 10.262 A 6.962 6.962 0 0 0 67.949 9.707 L 67.963 9.707 L 69.122 4.25 L 71.57 4.25 L 69.887 12.138 A 3.476 3.476 0 0 0 70.581 11.823 A 2.702 2.702 0 0 0 71.196 11.322 A 2.91 2.91 0 0 0 71.544 10.84 A 4.658 4.658 0 0 0 71.811 10.304 A 5.062 5.062 0 0 1 71.808 10.115 A 7.096 7.096 0 0 1 72.001 8.503 A 9.096 9.096 0 0 1 72.31 7.472 A 6.235 6.235 0 0 1 73.339 5.632 A 5.839 5.839 0 0 1 73.806 5.126 Q 74.8 4.165 76.177 4.165 Q 76.874 4.165 77.214 4.403 A 0.857 0.857 0 0 1 77.421 4.603 A 0.715 0.715 0 0 1 77.554 5.032 L 77.554 5.151 L 77.741 4.25 L 80.189 4.25 L 78.965 10.03 A 2.041 2.041 0 0 0 78.9 10.449 A 2.366 2.366 0 0 0 78.897 10.574 A 1.107 1.107 0 0 0 78.93 10.859 Q 79.049 11.305 79.594 11.305 A 0.955 0.955 0 0 0 80.248 11.046 A 1.443 1.443 0 0 0 80.419 10.863 Q 80.727 10.472 80.922 9.869 A 4.899 4.899 0 0 0 80.968 9.719 L 82.127 4.25 L 84.575 4.25 L 84.388 5.134 Q 85.255 4.165 86.462 4.165 A 2.259 2.259 0 0 1 87.146 4.261 Q 87.859 4.487 88.118 5.248 A 2.523 2.523 0 0 1 88.213 5.627 A 3.871 3.871 0 0 1 88.841 4.869 A 2.491 2.491 0 0 1 90.576 4.182 A 2.556 2.556 0 0 1 91.153 4.244 Q 91.626 4.353 91.953 4.658 A 1.489 1.489 0 0 1 92.349 5.297 Q 92.463 5.645 92.463 6.103 Q 92.463 6.581 92.351 7.162 A 7.874 7.874 0 0 1 92.344 7.2 Q 92.262 7.614 92.132 8.154 A 40.775 40.775 0 0 1 92.004 8.67 A 29.822 29.822 0 0 0 91.771 9.636 A 27.319 27.319 0 0 0 91.758 9.699 A 6.887 6.887 0 0 0 91.702 9.978 Q 91.655 10.242 91.648 10.43 A 1.684 1.684 0 0 0 91.647 10.489 A 1.216 1.216 0 0 0 91.663 10.693 Q 91.697 10.89 91.8 11.016 A 0.45 0.45 0 0 0 91.984 11.147 Q 92.122 11.203 92.327 11.203 A 1.149 1.149 0 0 0 92.714 11.14 A 0.981 0.981 0 0 0 93.143 10.838 Q 93.449 10.472 93.755 9.707 L 94.911 4.25 L 97.359 4.25 L 96.135 10.03 A 2.041 2.041 0 0 0 96.07 10.449 A 2.366 2.366 0 0 0 96.067 10.574 Q 96.067 10.771 96.121 10.903 A 0.421 0.421 0 0 0 96.229 11.059 Q 96.38 11.194 96.718 11.203 A 1.835 1.835 0 0 0 96.764 11.203 Q 97.257 11.203 97.682 10.787 A 2.218 2.218 0 0 0 98.154 10.097 A 2.868 2.868 0 0 0 98.294 9.707 L 99.008 9.707 A 8.373 8.373 0 0 1 98.626 10.646 Q 98.102 11.727 97.393 12.198 A 4.335 4.335 0 0 1 96.579 12.627 A 3.111 3.111 0 0 1 95.438 12.852 A 2.12 2.12 0 0 1 94.838 12.771 A 1.638 1.638 0 0 1 94.121 12.342 A 1.595 1.595 0 0 1 93.752 11.728 A 2.486 2.486 0 0 1 93.679 11.455 A 3.62 3.62 0 0 1 93.274 11.98 A 2.294 2.294 0 0 1 93.016 12.215 A 3.315 3.315 0 0 1 92.309 12.639 A 2.496 2.496 0 0 1 91.307 12.852 Q 90.629 12.852 90.187 12.616 A 1.417 1.417 0 0 1 89.786 12.3 A 1.939 1.939 0 0 1 89.313 11.18 A 2.556 2.556 0 0 1 89.301 10.931 Q 89.301 10.574 89.386 10.124 Q 89.471 9.673 89.565 9.248 A 40.239 40.239 0 0 1 89.597 9.099 Q 89.664 8.801 89.692 8.704 Q 89.828 8.109 89.947 7.531 A 7.939 7.939 0 0 0 90.01 7.191 Q 90.062 6.865 90.066 6.629 A 2.234 2.234 0 0 0 90.066 6.596 A 1.819 1.819 0 0 0 90.043 6.29 Q 89.949 5.745 89.481 5.73 A 0.835 0.835 0 0 0 89.454 5.729 A 0.874 0.874 0 0 0 88.897 5.932 A 1.387 1.387 0 0 0 88.672 6.163 A 2.676 2.676 0 0 0 88.383 6.627 Q 88.268 6.858 88.177 7.135 A 4.898 4.898 0 0 0 88.128 7.293 L 86.972 12.75 L 84.524 12.75 L 85.765 6.885 Q 85.816 6.681 85.816 6.46 Q 85.816 5.734 85.336 5.713 A 0.665 0.665 0 0 0 85.306 5.712 A 0.969 0.969 0 0 0 84.64 5.977 A 1.441 1.441 0 0 0 84.482 6.146 A 2.559 2.559 0 0 0 84.191 6.605 Q 84.077 6.832 83.987 7.106 A 4.795 4.795 0 0 0 83.929 7.293 L 82.773 12.75 L 80.325 12.75 L 80.513 11.861 A 3.266 3.266 0 0 1 80.288 12.075 A 2.387 2.387 0 0 1 80.13 12.198 A 3.953 3.953 0 0 1 79.375 12.621 A 2.852 2.852 0 0 1 78.268 12.852 A 2.073 2.073 0 0 1 77.772 12.796 A 1.457 1.457 0 0 1 77.121 12.453 A 1.499 1.499 0 0 1 76.744 11.889 Q 76.659 11.673 76.618 11.411 A 2.909 2.909 0 0 1 76.602 11.288 A 5.221 5.221 0 0 1 76.012 11.989 A 4.24 4.24 0 0 1 75.506 12.419 A 2.303 2.303 0 0 1 74.398 12.834 A 2.955 2.955 0 0 1 74.069 12.852 A 2.328 2.328 0 0 1 73.206 12.697 A 2.144 2.144 0 0 1 72.454 12.189 A 2.014 2.014 0 0 1 72.012 11.466 A 3.246 3.246 0 0 1 71.981 11.375 A 3.224 3.224 0 0 1 71.502 11.926 Q 70.72 12.631 69.734 12.886 L 69.479 14.11 Q 69.146 15.727 68.338 16.355 A 1.94 1.94 0 0 1 68.306 16.38 Q 67.473 17 66.419 17 A 2.583 2.583 0 0 1 65.784 16.926 A 1.933 1.933 0 0 1 65.059 16.575 A 1.379 1.379 0 0 1 64.623 15.992 A 2.381 2.381 0 0 1 64.258 16.355 A 1.94 1.94 0 0 1 64.226 16.38 Q 63.393 17 62.339 17 A 2.583 2.583 0 0 1 61.704 16.926 A 1.933 1.933 0 0 1 60.979 16.575 A 1.379 1.379 0 0 1 60.457 15.66 A 2.046 2.046 0 0 1 60.435 15.351 Q 60.435 14.382 61.217 13.796 Q 61.921 13.268 62.97 12.898 A 9.754 9.754 0 0 1 63.206 12.818 Z M 104.414 12.778 A 3.885 3.885 0 0 0 105.196 12.852 Q 107.2 12.852 108.738 11.227 A 8.744 8.744 0 0 0 109.104 10.808 A 3.156 3.156 0 0 0 109.232 11.323 A 1.983 1.983 0 0 0 109.786 12.172 Q 110.517 12.818 111.775 12.818 Q 112.812 12.818 113.696 12.189 A 4.091 4.091 0 0 0 114.544 11.372 A 5.347 5.347 0 0 0 115.141 10.404 A 6.717 6.717 0 0 0 115.607 9.108 A 8.981 8.981 0 0 0 115.838 7.701 A 7.465 7.465 0 0 0 116.184 7.636 A 6.489 6.489 0 0 0 117.263 7.311 L 116.11 12.75 L 118.558 12.75 L 119.714 7.293 A 4.795 4.795 0 0 1 119.772 7.106 Q 119.862 6.832 119.976 6.605 A 2.559 2.559 0 0 1 120.267 6.146 A 1.441 1.441 0 0 1 120.425 5.977 A 0.969 0.969 0 0 1 121.091 5.712 A 0.665 0.665 0 0 1 121.121 5.713 Q 121.601 5.734 121.601 6.46 Q 121.601 6.681 121.55 6.885 L 120.309 12.75 L 122.757 12.75 L 123.913 7.293 A 4.898 4.898 0 0 1 123.962 7.135 Q 124.053 6.858 124.168 6.627 A 2.676 2.676 0 0 1 124.457 6.163 A 1.387 1.387 0 0 1 124.682 5.932 A 0.874 0.874 0 0 1 125.239 5.729 A 0.835 0.835 0 0 1 125.266 5.73 Q 125.734 5.745 125.828 6.29 A 1.819 1.819 0 0 1 125.851 6.596 A 2.234 2.234 0 0 1 125.851 6.629 Q 125.847 6.865 125.795 7.191 A 7.939 7.939 0 0 1 125.732 7.531 Q 125.613 8.109 125.477 8.704 Q 125.449 8.801 125.382 9.099 A 40.239 40.239 0 0 0 125.35 9.248 Q 125.256 9.673 125.171 10.124 Q 125.086 10.574 125.086 10.931 A 2.556 2.556 0 0 0 125.098 11.18 A 1.939 1.939 0 0 0 125.571 12.3 A 1.417 1.417 0 0 0 125.972 12.616 Q 126.414 12.852 127.092 12.852 A 2.496 2.496 0 0 0 128.094 12.639 A 3.315 3.315 0 0 0 128.801 12.215 A 2.294 2.294 0 0 0 129.059 11.98 Q 129.515 11.5 129.906 10.614 A 10.692 10.692 0 0 0 130.254 9.707 L 129.54 9.707 Q 129.234 10.472 128.928 10.838 A 0.981 0.981 0 0 1 128.499 11.14 A 1.149 1.149 0 0 1 128.112 11.203 Q 127.907 11.203 127.769 11.147 A 0.45 0.45 0 0 1 127.585 11.016 Q 127.482 10.89 127.448 10.693 A 1.216 1.216 0 0 1 127.432 10.489 A 1.684 1.684 0 0 1 127.433 10.43 Q 127.44 10.242 127.487 9.978 A 6.887 6.887 0 0 1 127.543 9.699 A 27.319 27.319 0 0 1 127.556 9.636 A 29.822 29.822 0 0 1 127.789 8.67 A 40.775 40.775 0 0 0 127.917 8.154 Q 128.047 7.614 128.129 7.2 A 7.874 7.874 0 0 0 128.136 7.162 Q 128.248 6.581 128.248 6.103 Q 128.248 5.645 128.134 5.297 A 1.489 1.489 0 0 0 127.738 4.658 Q 127.411 4.353 126.938 4.244 A 2.556 2.556 0 0 0 126.361 4.182 A 2.491 2.491 0 0 0 124.626 4.869 A 3.871 3.871 0 0 0 123.998 5.627 A 2.523 2.523 0 0 0 123.903 5.248 Q 123.644 4.487 122.931 4.261 A 2.259 2.259 0 0 0 122.247 4.165 Q 121.04 4.165 120.173 5.134 L 120.36 4.25 L 117.912 4.25 L 117.429 6.529 A 6.611 6.611 0 0 1 117.368 6.554 A 5.251 5.251 0 0 1 117.051 6.671 Q 116.794 6.757 116.56 6.802 A 2.573 2.573 0 0 1 116.076 6.851 A 2.1 2.1 0 0 1 116.067 6.851 Q 115.938 6.851 115.889 6.834 L 115.889 6.817 Q 115.889 4.097 113.713 4.097 A 4.739 4.739 0 0 0 113.418 4.106 A 3.58 3.58 0 0 0 111.061 5.126 Q 110.007 6.154 109.531 7.565 Q 109.278 8.315 109.16 8.992 A 6.621 6.621 0 0 0 109.058 9.961 A 11.672 11.672 0 0 1 108.875 10.148 Q 108.612 10.41 108.365 10.618 A 5.174 5.174 0 0 1 107.857 10.999 A 2.54 2.54 0 0 1 107.062 11.337 A 3.312 3.312 0 0 1 106.284 11.424 A 2.263 2.263 0 0 1 105.976 11.404 Q 105.804 11.381 105.667 11.329 A 0.861 0.861 0 0 1 105.349 11.127 Q 105.131 10.902 105.078 10.374 A 3.758 3.758 0 0 1 105.06 9.996 A 5.839 5.839 0 0 1 105.064 9.793 Q 105.094 8.919 105.383 7.854 A 10.849 10.849 0 0 1 105.424 7.706 Q 105.571 7.195 105.754 6.751 A 6.511 6.511 0 0 1 106.216 5.831 A 3.829 3.829 0 0 1 106.341 5.639 Q 106.593 5.278 106.846 5.12 A 0.731 0.731 0 0 1 107.236 4.998 Q 107.474 4.998 107.593 5.185 A 0.642 0.642 0 0 1 107.654 5.312 Q 107.685 5.395 107.699 5.498 A 1.424 1.424 0 0 1 107.712 5.695 A 2.073 2.073 0 0 1 107.705 5.868 Q 107.673 6.244 107.508 6.698 Q 107.814 6.902 108.103 6.902 A 0.776 0.776 0 0 0 108.515 6.791 A 0.888 0.888 0 0 0 108.749 6.579 Q 108.924 6.357 108.979 6.006 A 2.241 2.241 0 0 0 109.004 5.661 A 2.01 2.01 0 0 0 108.998 5.505 A 1.5 1.5 0 0 0 108.571 4.539 Q 108.252 4.214 107.617 4.128 A 3.73 3.73 0 0 0 107.117 4.097 A 4.633 4.633 0 0 0 106.825 4.106 A 3.473 3.473 0 0 0 104.508 5.126 Q 103.479 6.154 103.012 7.565 A 11.701 11.701 0 0 0 102.955 7.741 Q 102.544 9.049 102.544 10.149 A 4.776 4.776 0 0 0 102.57 10.663 Q 102.679 11.67 103.241 12.198 A 2.132 2.132 0 0 0 103.58 12.457 Q 103.942 12.681 104.414 12.778 Z M 112.455 11.288 A 0.799 0.799 0 0 0 112.831 11.189 Q 113.051 11.073 113.271 10.821 Q 113.679 10.353 113.985 9.546 A 7.594 7.594 0 0 0 114.301 8.466 A 9.432 9.432 0 0 0 114.427 7.752 A 0.524 0.524 0 0 1 114.027 7.412 Q 113.968 7.258 113.968 7.038 A 1.414 1.414 0 0 1 114.005 6.701 Q 114.108 6.282 114.495 6.12 Q 114.469 5.689 114.383 5.464 A 0.647 0.647 0 0 0 114.325 5.347 A 0.432 0.432 0 0 0 114.079 5.165 Q 114.004 5.142 113.912 5.136 A 0.998 0.998 0 0 0 113.849 5.134 A 0.869 0.869 0 0 0 113.382 5.279 Q 113.098 5.458 112.824 5.855 A 3.763 3.763 0 0 0 112.761 5.95 A 6.279 6.279 0 0 0 112.259 6.908 A 8.486 8.486 0 0 0 111.911 7.905 Q 111.588 9.044 111.588 9.911 Q 111.588 10.718 111.771 11.001 A 0.511 0.511 0 0 0 111.775 11.008 A 0.574 0.574 0 0 0 112.06 11.226 Q 112.224 11.288 112.455 11.288 Z M 12.682 9.707 L 13.498 5.865 A 0.612 0.612 0 0 0 13.432 5.592 A 0.882 0.882 0 0 0 13.328 5.432 Q 13.17 5.235 12.852 5.22 A 1.133 1.133 0 0 0 12.801 5.219 Q 12.121 5.219 11.577 6.01 A 5.544 5.544 0 0 0 11.04 7.001 A 7.372 7.372 0 0 0 10.727 7.914 A 10.03 10.03 0 0 0 10.541 8.712 Q 10.421 9.346 10.421 9.877 Q 10.421 10.682 10.642 10.938 A 0.408 0.408 0 0 0 10.668 10.965 Q 10.914 11.203 11.271 11.203 A 0.988 0.988 0 0 0 11.72 11.09 Q 11.862 11.019 12.003 10.902 A 2.065 2.065 0 0 0 12.113 10.804 A 1.842 1.842 0 0 0 12.514 10.224 A 2.62 2.62 0 0 0 12.682 9.707 Z M 76.585 9.707 L 77.401 5.865 A 0.612 0.612 0 0 0 77.335 5.592 A 0.882 0.882 0 0 0 77.231 5.432 Q 77.073 5.235 76.755 5.22 A 1.133 1.133 0 0 0 76.704 5.219 Q 76.024 5.219 75.48 6.01 A 5.544 5.544 0 0 0 74.943 7.001 A 7.372 7.372 0 0 0 74.63 7.914 A 10.03 10.03 0 0 0 74.444 8.712 Q 74.324 9.346 74.324 9.877 Q 74.324 10.682 74.545 10.938 A 0.408 0.408 0 0 0 74.571 10.965 Q 74.817 11.203 75.174 11.203 A 0.988 0.988 0 0 0 75.623 11.09 Q 75.765 11.019 75.906 10.902 A 2.065 2.065 0 0 0 76.016 10.804 A 1.842 1.842 0 0 0 76.417 10.224 A 2.62 2.62 0 0 0 76.585 9.707 Z M 30.192 9.792 L 30.192 9.707 L 31.025 5.814 A 1.073 1.073 0 0 0 30.922 5.55 Q 30.755 5.257 30.417 5.223 A 0.91 0.91 0 0 0 30.328 5.219 Q 29.648 5.219 29.104 6.01 A 5.544 5.544 0 0 0 28.567 7.001 A 7.372 7.372 0 0 0 28.254 7.914 A 10.03 10.03 0 0 0 28.068 8.712 Q 27.948 9.346 27.948 9.877 Q 27.948 10.682 28.169 10.938 A 0.408 0.408 0 0 0 28.195 10.965 Q 28.441 11.203 28.798 11.203 Q 29.144 11.203 29.496 10.934 A 2.072 2.072 0 0 0 29.623 10.829 A 1.728 1.728 0 0 0 30.04 10.249 A 2.417 2.417 0 0 0 30.192 9.792 Z M 47.039 11.509 A 1.745 1.745 0 0 0 47.567 11.432 A 1.448 1.448 0 0 0 48.093 11.135 A 1.132 1.132 0 0 0 48.405 10.665 Q 48.474 10.478 48.501 10.245 A 2.764 2.764 0 0 0 48.518 9.928 Q 48.518 9.418 48.416 8.5 A 847.013 847.013 0 0 1 48.347 7.713 Q 48.235 6.417 48.195 5.899 Q 47.9 6.87 47.312 8.117 A 29.968 29.968 0 0 1 46.818 9.112 A 0.871 0.871 0 0 1 47.02 9.254 A 0.602 0.602 0 0 1 47.209 9.707 Q 47.209 10.03 46.997 10.285 Q 46.784 10.54 46.461 10.54 Q 46.27 10.54 46.152 10.477 A 0.334 0.334 0 0 1 46.002 10.319 A 2.424 2.424 0 0 0 46.021 10.638 Q 46.07 11.004 46.241 11.211 A 0.731 0.731 0 0 0 46.249 11.22 A 0.755 0.755 0 0 0 46.58 11.441 Q 46.706 11.485 46.862 11.501 A 1.78 1.78 0 0 0 47.039 11.509 Z M 55.437 5.712 L 54.502 10.03 A 1.724 1.724 0 0 0 54.458 10.278 A 1.449 1.449 0 0 0 54.451 10.421 A 0.966 0.966 0 0 0 54.502 10.749 Q 54.655 11.174 55.267 11.201 A 1.93 1.93 0 0 0 55.352 11.203 A 0.907 0.907 0 0 0 55.854 11.045 Q 56.105 10.881 56.338 10.549 Q 56.797 9.894 57.069 8.917 A 7.498 7.498 0 0 0 57.303 7.725 A 6.292 6.292 0 0 0 57.341 7.038 A 3.248 3.248 0 0 0 57.302 6.519 Q 57.244 6.165 57.103 5.882 Q 56.865 5.406 56.44 5.406 A 2.019 2.019 0 0 0 56.179 5.424 Q 56.051 5.441 55.911 5.473 A 3.401 3.401 0 0 0 55.871 5.483 A 1.383 1.383 0 0 0 55.709 5.532 Q 55.523 5.602 55.437 5.712 Z M 41.582 8.5 A 2.165 2.165 0 0 0 42.56 8.201 A 2.712 2.712 0 0 0 42.781 8.058 Q 43.35 7.65 43.699 7.021 Q 44.047 6.392 44.047 5.695 Q 44.047 5.232 43.86 5.077 A 0.36 0.36 0 0 0 43.622 4.998 A 0.815 0.815 0 0 0 43.167 5.149 Q 42.876 5.343 42.591 5.786 A 4.709 4.709 0 0 0 42.424 6.069 A 7.688 7.688 0 0 0 41.774 7.678 A 9.388 9.388 0 0 0 41.582 8.5 Z M 36.804 3.191 A 1.325 1.325 0 0 0 37.417 3.332 A 1 1 0 0 0 37.419 3.332 A 1.324 1.324 0 0 0 38.378 2.941 A 1.541 1.541 0 0 0 38.396 2.923 A 1.28 1.28 0 0 0 38.777 1.989 A 1.564 1.564 0 0 0 38.777 1.972 A 1.308 1.308 0 0 0 38.378 1.029 A 1.595 1.595 0 0 0 38.365 1.016 A 1.308 1.308 0 0 0 37.417 0.629 A 1.558 1.558 0 0 0 37.391 0.629 A 1.279 1.279 0 0 0 36.465 1.029 A 1.681 1.681 0 0 0 36.463 1.03 A 1.324 1.324 0 0 0 36.074 1.989 A 1.596 1.596 0 0 0 36.074 2.007 A 1.294 1.294 0 0 0 36.465 2.941 A 1.348 1.348 0 0 0 36.804 3.191 Z M 95.981 3.191 A 1.325 1.325 0 0 0 96.594 3.332 A 1 1 0 0 0 96.596 3.332 A 1.324 1.324 0 0 0 97.555 2.941 A 1.541 1.541 0 0 0 97.573 2.923 A 1.28 1.28 0 0 0 97.954 1.989 A 1.564 1.564 0 0 0 97.954 1.972 A 1.308 1.308 0 0 0 97.555 1.029 A 1.595 1.595 0 0 0 97.542 1.016 A 1.308 1.308 0 0 0 96.594 0.629 A 1.558 1.558 0 0 0 96.568 0.629 A 1.279 1.279 0 0 0 95.642 1.029 A 1.681 1.681 0 0 0 95.64 1.03 A 1.324 1.324 0 0 0 95.251 1.989 A 1.596 1.596 0 0 0 95.251 2.007 A 1.294 1.294 0 0 0 95.642 2.941 A 1.348 1.348 0 0 0 95.981 3.191 Z M 99.551 12.677 A 1.325 1.325 0 0 0 100.164 12.818 A 1 1 0 0 0 100.166 12.818 A 1.324 1.324 0 0 0 101.125 12.427 A 1.541 1.541 0 0 0 101.143 12.409 A 1.28 1.28 0 0 0 101.524 11.475 A 1.564 1.564 0 0 0 101.524 11.458 A 1.308 1.308 0 0 0 101.125 10.515 A 1.595 1.595 0 0 0 101.112 10.502 A 1.308 1.308 0 0 0 100.164 10.115 A 1.558 1.558 0 0 0 100.138 10.115 A 1.279 1.279 0 0 0 99.212 10.515 A 1.681 1.681 0 0 0 99.21 10.516 A 1.324 1.324 0 0 0 98.821 11.475 A 1.596 1.596 0 0 0 98.821 11.493 A 1.294 1.294 0 0 0 99.212 12.427 A 1.348 1.348 0 0 0 99.551 12.677 Z M 70.039 3.174 A 1.325 1.325 0 0 0 70.652 3.315 A 1 1 0 0 0 70.654 3.315 A 1.324 1.324 0 0 0 71.613 2.924 A 1.541 1.541 0 0 0 71.631 2.906 A 1.28 1.28 0 0 0 72.012 1.972 A 1.564 1.564 0 0 0 72.012 1.955 A 1.308 1.308 0 0 0 71.613 1.012 A 1.595 1.595 0 0 0 71.6 0.999 A 1.308 1.308 0 0 0 70.652 0.612 A 1.558 1.558 0 0 0 70.626 0.612 A 1.279 1.279 0 0 0 69.7 1.012 A 1.681 1.681 0 0 0 69.698 1.013 A 1.324 1.324 0 0 0 69.309 1.972 A 1.596 1.596 0 0 0 69.309 1.99 A 1.294 1.294 0 0 0 69.7 2.924 A 1.348 1.348 0 0 0 70.039 3.174 Z M 65.654 12.886 L 65.491 13.668 A 3.781 3.781 0 0 1 65.968 13.369 Q 66.405 13.131 66.974 12.928 A 10.085 10.085 0 0 1 67.303 12.818 L 67.51 11.842 A 3.224 3.224 0 0 1 67.422 11.926 Q 66.64 12.631 65.654 12.886 Z M 67.014 14.161 L 67.116 13.668 A 6.184 6.184 0 0 0 66.508 13.926 Q 65.905 14.224 65.646 14.568 A 0.892 0.892 0 0 0 65.45 15.113 Q 65.45 15.334 65.603 15.504 Q 65.756 15.674 66.028 15.674 A 0.476 0.476 0 0 0 66.278 15.599 Q 66.429 15.508 66.575 15.303 A 1.861 1.861 0 0 0 66.589 15.283 A 1.988 1.988 0 0 0 66.769 14.958 Q 66.916 14.629 67.014 14.161 Z M 62.934 14.161 L 63.036 13.668 A 6.184 6.184 0 0 0 62.428 13.926 Q 61.825 14.224 61.566 14.568 A 0.892 0.892 0 0 0 61.37 15.113 Q 61.37 15.334 61.523 15.504 Q 61.676 15.674 61.948 15.674 A 0.476 0.476 0 0 0 62.198 15.599 Q 62.349 15.508 62.495 15.303 A 1.861 1.861 0 0 0 62.509 15.283 A 1.988 1.988 0 0 0 62.689 14.958 Q 62.836 14.629 62.934 14.161 Z" vector-effect="non-scaling-stroke"/></g></svg>