<?xml version="1.0" encoding="UTF-8"?>
<svg version="1.1" viewBox="0 0 211 17" xmlns="http://www.w3.org/2000/svg">
 <defs>
  <clipPath id="clipPath1065">
   <path d="m0.70703 0.86523v2.9746c0.002625 0.0026 0.003224 0.00325 0.005859 0.00586 0.14099-0.5705 0.28376-1.1423 0.41602-1.7148 0.00371-0.016066 0.00241-0.00814 0.00586-0.023437-0.013214-0.099446-0.023989-0.20046-0.027344-0.30078-0.0083-0.24809 0.06018-0.49233 0.09375-0.73828 0.00437-0.032041 0.021287-0.1037 0.021484-0.09375 0.00436-0.036752 0.012979-0.072693 0.017578-0.10938zm42.998 0c0.16976 0.025823 0.35301 0.079062 0.5293 0.11719-0.03619-0.038704-0.06977-0.079654-0.10742-0.11719zm35.721 0c-0.02165 0.009667-0.0295 0.019859-0.04883 0.029297 0.0051-1.9579e-4 0.0105 1.9598e-4 0.01563 0 0.01166-0.010444 0.02135-0.018667 0.0332-0.029297zm0.18555 0c0.0064 0.007286 0.01352 0.013826 0.01953 0.021484 0.06057-0.002314 0.12046-0.005475 0.18164-0.007813-0.0026-0.00525-0.0054-0.008781-0.0078-0.013672zm0.20117 0.013672c0.03677 0.075505 0.06724 0.12785 0.10352 0.20117-0.0072-0.067746-0.01678-0.13536-0.02344-0.20312-0.01385 5.2871e-4 -0.02719-5.2764e-4 -0.04102 0-0.01399 0.00199-0.02097 0.00386-0.03516 0.005859 0.0055-0.001917 0.0063-0.002035 0.01172-0.003906-0.0053 2.0079e-4 -0.01036-2.0063e-4 -0.01563 0zm0.01563 0c0.0079-3.0209e-4 0.01552-0.001651 0.02344-0.001953 0.01627-0.002314 0.02501-0.003561 0.04102-0.005859-1.89e-4 -0.001927 2.61e-4 -0.003938 0-0.005859h-0.02734c-0.01042 0.004113-0.01987 0.007679-0.03711 0.013672zm0.06445-0.007813c1.89e-4 0.001928-1.89e-4 0.003931 0 0.005859 0.10633-0.004059 0.21098-0.00784 0.31445-0.011719h-0.27148c-0.01854 0.002689-0.02407 0.003146-0.04297 0.005859zm12.439-0.005859c-0.02136 0.58464-0.04361 1.1692-0.06445 1.7539 0.35512 0.43673 0.70748 0.87463 1.084 1.293 0.06548-0.00897 0.13861-0.026695 0.19922-0.03125-0.39896-0.81273-0.73257-1.9782-1.0645-3.0156zm1.2188 3.0156c0.0058 0.011755 0.0098 0.02553 0.01563 0.037109 0.0433-0.022044 0.08833-0.048515 0.05469-0.046875-0.02064 0.00101-0.04898 0.00816-0.07031 0.00977zm0.01563 0.037109c-0.05523 0.028118-0.11024 0.038304-0.15625 0.023437 0.06815 0.0303 0.13632 0.060462 0.20898 0.083984-0.0175-0.032819-0.03549-0.072986-0.05273-0.10742zm-0.15625 0.023437c-0.01864-0.00829-0.03636-0.018569-0.05469-0.027344 0.0084 0.0093 0.01505 0.020011 0.02344 0.029297 0.0051 0.00561 0.02316-0.00457 0.03125-0.00195zm3.3906-3.0762c-0.0109 0.25181-0.05009 0.50047-0.06445 0.75195 0.28477-0.21716 0.57618-0.42424 0.89062-0.59375 4e-3 -0.00217 0.01327-0.00182 0.01758-0.00391 0.0073-0.012959 0.01423-0.026086 0.02148-0.039062-0.0038-0.009205-0.0067-0.019603-0.0098-0.027344-0.02759-0.001976-0.10919-0.003145-0.14648-0.001953-8.83e-4 2.798e-5 0.07568-0.002335 0.14258-0.003906-0.0091-0.023096-0.01811-0.047345-0.0332-0.082031zm0.92578 0c0.0024 0.035808-1.34e-4 0.051796 0 0.080078 0.0036-1.7492e-4 0.01604 1.5838e-4 0.01758 0 0.05267-5.183e-5 0.10412 0.005138 0.15625 0.005859 0.29389-0.04514 0.70402-0.047026 0.94336-0.037109 0.35729 0.014803 0.71353 0.045657 1.0703 0.070312 0.01823-0.014433 0.03685-0.030632 0.05469-0.044922-0.25615 0.23306-0.08889 0.08054 0.08594-0.074219zm13.143 0c0.0586 0.078627 0.11303 0.15974 0.15234 0.25 0.37995 0.87223 0.63126 1.7951 0.91016 2.7051-4.6e-4 -0.010508-6.1e-4 -0.078123 0-0.058594 5.8e-4 0.020898 2e-3 0.041492 2e-3 0.0625 0.01 0.031842 0.0195 0.063896 0.0293 0.095703 0.0168 0.054344-0.0101 0.2237-0.0215 0.16797-0.0176-0.086397-9e-3 -0.17505-8e-3 -0.26367-4.2e-4 -0.00137-2e-3 -0.00254-2e-3 -0.00391 3e-3 0.058858 0.0175 0.43542 6e-3 0.32812-1e-3 0.040755-6e-3 0.089821-8e-3 0.14062 0.015 0.065703 0.0357 0.1302 0.0449 0.19727 0.0166 0.12089 0.0232 0.24119 0.0234 0.35938 0.39392 0.19629 0.81695 0.43321 1.3535 0.75586 0.45865-0.99769 1.5359-1.9566 3.3457-2.541 0.11937-0.038546 0.23831-0.077143 0.35742-0.11523 0.18984-0.32431 0.42894-0.58743 0.69726-0.83398 0.016-0.010632 0.0973-0.07829 0.20117-0.16406 5e-3 -0.012 0.011-0.023188 0.0156-0.035156-8e-3 0.00574-0.0155 0.01191-0.0234 0.017578 0.0102-0.00836 0.017-0.019022 0.0273-0.027344 0.13367-0.34803 0.26503-0.716 0.41992-1.0371zm19.293 0c0.042 0.032724 0.0877 0.06712 0.12891 0.099609 0.53371 0.031032 1.0682 0.062329 1.6016 0.089844l1.3594 0.054687c1.3e-4 -0.00325-1.3e-4 -0.00652 0-0.00977 0.0209 1.483e-4 0.0416-1.425e-4 0.0625 0-9e-3 0.00149-0.017 0.00375-0.0117 0.00391 0.0154 4.408e-4 0.0221 0.00153 0.0371 0.00195v-0.00195c5e-5 -0.00516-0.0104-0.00453-0.0195-0.00391 0.0574 3.914e-4 0.11443 0.00149 0.17188 0.00195 7e-3 5.18e-5 0.013-5.31e-5 0.0195 0 0.0414-0.010832 0.0797-0.018456 0.10156-0.00977 0.16942-0.017399 0.28202-0.011816 0.34375 0.033203 1.0569 0.057933 0.64284 0.32739 0.15625 2.7422 0.0694 0.3418 0.14107 0.64838 0.21484 0.92188 0.066 0.081328 0.12243 0.14748 0.19922 0.24609 0.11373 0.14605 0.23182 0.29055 0.32032 0.45312 0.16703 0.30681 0.27356 0.64393 0.44336 0.94922v0.00195c0.0768 0.18186 0.14818 0.36537 0.19531 0.55664 0.21408 0.8688-0.077 1.7717-0.44336 2.543-0.0238 0.050072-0.0513 0.098573-0.082 0.14453 0.10047 0.31778 0.16219 0.65005 0.15234 1.002-0.0236 0.84202-0.25308 1.3774-0.51367 2.0879-0.42191 0.4731-0.82913 0.95951-1.252 1.4316 0.0779 0.1082 0.15199 0.21956 0.23632 0.32227-0.11191-0.13753-0.18422-0.22509-0.2539-0.30274-0.0831 0.0925-0.16829 0.18336-0.25391 0.27344 0.4203 0.46115 0.84737 0.91622 1.1582 1.4531 0.0503 0.08685 0.0842 0.17129 0.10937 0.25391h4.0547c-0.0639-0.07215-0.11855-0.15097-0.14844-0.24805-0.0643-0.20873-0.11273-0.38536-0.16992-0.57812-0.0587-0.12198-0.11559-0.26797-0.17188-0.40625 1e-3 0.0056 7e-3 0.02404 8e-3 0.0293-9e-3 -0.02677-0.0147-0.05366-0.0274-0.08008-0.0339-0.08495-0.0704-0.1548-0.10351-0.24609-0.054-0.1488-0.0765-0.36775-0.084-0.60352-0.0713-0.33287-0.12432-0.65657-0.13281-0.9707-0.0674-0.7362 0.0426-1.302 0.43164-1.7578 0.11474-0.32665 0.23731-0.63998 0.38281-0.94141-0.13858-0.0351-0.27509-0.07333-0.41211-0.11524-0.61317-1.4364-1.2267-2.8722-1.8398-4.3086-0.023 0.019225-0.0453 0.039448-0.0684 0.058594-0.0303 0.025124 0.0311-0.071361 0.0469-0.10742 7e-3 0.016355 0.0145 0.032474 0.0215 0.048828 0.10237-0.085412 0.19949-0.17691 0.30078-0.26367-2.359-0.79895-2.8144-3.2643-0.89062-4.8496zm7.7266 14.057c7e-3 0.01731 0.0126 0.03373 0.0195 0.05078-7e-3 -0.03408-0.03-0.13374-0.041-0.17969-2e-3 0.01349-8e-3 0.02757-0.01 0.04101-4e-3 0.03094 0.0174 0.05877 0.0312 0.08789zm34.492-14.057c-0.23936 0.37731-0.48187 0.82816-0.72461 1.3145 0.39774-0.36792 0.81138-0.76445 1.2891-1.3145zm-74.051 0.10156c0.04951 0.003052 0.09847 0.00187 0.14844 0.005859 0.03963 0.003164-0.07953-0.009283-0.11914-0.005859-0.0095 8.2495e-4 -0.01968-5.9553e-4 -0.0293 0zm-6.9902 0.082031c-0.03322-0.00319-0.0151 0.23475 0.03125 0.47266 0.09859 0.12451 0.20007 0.24673 0.29883 0.37109-0.0763-0.2224-0.11895-0.37976-0.29688-0.79688-0.01394-0.032675-0.02513-0.0461-0.0332-0.046875zm6.2812 0.00781c-0.31085 0.17023-0.60131 0.37422-0.88672 0.58594-0.02134 0.36901-0.05556 0.73646-0.09375 1.1035 0.33026-0.56113 0.66226-1.1217 0.98047-1.6895zm-96.416 0.066409c-0.016669 0.12965-0.034053 0.25903-0.050781 0.38867-4.603e-4 0.011813-0.00362 0.046859-0.00195 0.035156 0.020103-0.14085 0.036595-0.28229 0.052734-0.42383zm95.369 0.32812c-0.0013 0.00191-0.0045 0.011287-0.0059 0.013672 0.01059 0.014084 0.02061 0.028929 0.03125 0.042969 3e-5 -0.066104-0.0095-0.08088-0.02539-0.056641zm8.1934 0c-0.037 0.00139 8e-3 6.307e-4 -0.0273 0.00195 0.0264 0.00422 0.0325 0.00518 0.0625 0.00977 1e-3 5.02e-5 0.0147-5.9e-5 0.0156 0-0.0265-0.00552-0.0337-0.00793-0.0508-0.01172zm-51.855 0.25586c-0.2595 0.30809-0.47459 0.66733-0.69141 1.0312 0.04827-0.00404 0.09619-0.012719 0.14453-0.015625 0.0961-0.010232 0.19287-0.022069 0.28906-0.033203 0.08791-0.32703 0.17082-0.65514 0.25781-0.98242zm-51.736 0.66992c-0.00409 0.064042-0.00336 0.039027-0.00781 0.11523 0.03291 0.16125 0.11195 0.64833 0.097656 0.48438-0.017551-0.20117-0.055392-0.40019-0.089846-0.59961zm110.31 0.64648c0.13187 0.39376 0.31956 0.77406 0.42578 1.1738-2e-3 -0.015533-2e-3 -0.03138-4e-3 -0.046875-0.0532-0.43937-0.19613-0.58715-0.42187-1.127zm-104.01 0.51953c-0.064389 0.00334-0.13849 0.021393-0.20898 0.035156-0.0022 0.0092-0.00569 0.01814-0.00781 0.027344-6.042e-4 0.00262-0.00135 0.0052-0.00195 0.00781 0.20186 0.00295 0.5013 5.71e-5 1.0137-0.017578 0.00448-9.674e-4 0.00919-1e-3 0.013672-0.00195-0.39563-0.028009-0.60614-0.061282-0.8086-0.050782zm102.18 0.28711c0.0331 0.012815 0.0791 0.030687 0.10156 0.039063 0.0149-0.032896-0.0337-0.039713-0.10156-0.039063zm-0.11133 0.00391c-0.0306 0.00452-0.0521 0.00916-0.082 0.013672 0.0566 0.046399 0.11581 0.089636 0.17188 0.13672 0.0165-0.012765 0.0415-0.029489 0.0547-0.041016-0.0467-0.034741-0.10515-0.080746-0.14453-0.10938zm0.19531 0.03125c-6e-3 -0.00158 8e-3 0.00402 0.0176 0.00781v-0.00195c-6e-3 -0.00161-0.0125-0.00457-0.0176-0.00586zm-13.799 0.074219c-0.70342 0.24709-1.4238 0.44777-2.1465 0.63086-0.04225 0.010704-0.08643 0.011805-0.12891 0.021484 0.13745 0.012808 0.2756 0.022638 0.41211 0.042969 0.36828 0.054851 0.81178 0.18072 1.2793 0.28711 0.19475-0.32749 0.38884-0.65511 0.58398-0.98242zm-91.268 0.16796c-0.00577-0.00852 0.038071 0.10756 0.050781 0.14453 0.00546-0.0011 0.010066-0.00283 0.015625-0.00391-0.022161-0.046855-0.043331-0.094231-0.066406-0.14062zm0.13281 0.2832c-0.00422 0.00168-0.00751 0.00418-0.011719 0.00586l0.00195 0.00195c0.0041-0.00112 0.00763-0.00279 0.011719-0.00391-6.058e-4 -0.00132-0.00135-0.00258-0.00195-0.00391zm-0.16602 0.10547c-0.069824 0.017703-0.15674 0.040762-0.21484 0.054687-0.025909 0.01153-0.056166 0.024088-0.080078 0.035156 0.1072-0.030262 0.21782-0.053162 0.32812-0.074219-0.011684-0.00513-0.022136-0.010593-0.033203-0.015625zm133.44 1.4707c-0.033 1.4202-0.0987 2.8416 0.0156 4.2559 9e-3 0.11656 0.14938 0.1423 0.28516 0.17383 0.0851-0.17592 0.177-0.33636 0.27148-0.48633-0.30678-1.276-0.34315-2.6164-0.45313-3.9395-0.0409 4.509e-4 -0.0789-0.00362-0.11914-0.00391zm-28.244 3.0859c-0.13889 0.11429-0.27836 0.22747-0.41015 0.34961-0.065 0.060272 0.15955-0.084218 0.22265-0.14648 0.0656-0.064736 0.12449-0.13586 0.1875-0.20312zm32.061 1.748c-0.0458 0.02562-0.0915 0.07308-0.13867 0.11914 0.0412 9e-3 0.0835 0.01184 0.125 0.01953l0.084-0.01758c-0.0238-0.04082-0.0456-0.07965-0.0703-0.12109zm-47.846 2.7578c0.03019 0.03532 0.05711 0.07751 0.08789 0.11133-0.01752-0.04045-0.03346-0.07156-0.05078-0.11133-0.01236 2.49e-4 -0.02474-2.49e-4 -0.03711 0zm0.2793 1.5488c-0.15585 0.05807-0.25588 0.10116-0.46094 0.17383-0.23729 0.08409-0.47956 0.15278-0.71875 0.23047-0.03229 0.2083-0.06743 0.41636-0.0957 0.625 0.05186 0.02574 0.06942 0.0476 0.07422 0.06836h1.5488c-0.06543-0.14505-0.24279-0.3391-0.59375-0.60547 0.06996-0.16707 0.16344-0.32833 0.24609-0.49219zm-1.2754 1.0293c-0.03149-0.01563-0.08348-0.03234-0.14258-0.04883-0.01787 0.03954-0.03865 0.07771-0.05664 0.11719h0.18945c0.0034-0.02278 0.0067-0.04557 0.0098-0.06836zm38.34-0.42969c-0.34672 0.16691-0.70519 0.32242-1.0566 0.45703 8e-3 0.0157 0.014 0.02576 0.0215 0.04102h1.0156c0.0108-0.15532 0.0183-0.31986 0.0195-0.49805zm-112.88 0.1582c-0.0036 0.01285-0.01249 0.02753-0.01758 0.04102 0.11229 0.10629 0.26165 0.20565 0.44727 0.29883h0.10352c-0.16332-0.09896-0.34558-0.21693-0.5332-0.33984zm44.148 0.16602-2e-3 2e-3c0.01136 6.59e-4 0.0156 0.0014 0.02344 2e-3 0.23605 0.08645 0.4362 0.12788 0.63672 0.16992h0.08008c-0.01665-0.04277-0.03328-0.08543-0.04687-0.12891-0.20354-0.02498-0.42601-0.0399-0.69141-0.04492zm-21.906 0.0332c-0.05604 0.04581-0.10239 0.09554-0.16016 0.14062h0.94727c-0.10223-0.01614-0.20446-0.03252-0.30664-0.04883-0.16585-0.02648-0.32494-0.05798-0.48047-0.0918zm-34.25 0.12891c-0.0018 9.29e-4 -0.00405 7.2e-4 -0.00586 2e-3 0.00769 0.0029 0.015352 0.0063 0.023437 0.0098h0.015625c-0.011163-0.0037-0.021973-0.0082-0.033203-0.01172z" fill="#f00"/>
  </clipPath>
 </defs>
 <path d="m9.0747 12.083c0-0.581-0.20508-1.0254-0.61524-1.333-0.41015-0.3145-1.1484-0.6426-2.2148-0.98438-1.0664-0.34863-1.9106-0.69042-2.5327-1.0254-1.6953-0.91601-2.543-2.1499-2.543-3.7017 0-0.80664 0.22558-1.5244 0.67675-2.1533 0.45801-0.63574 1.1108-1.1313 1.9585-1.4868 0.85449-0.35547 1.8115-0.53321 2.8711-0.53321 1.0664 0 2.0166 0.19483 2.8506 0.58448 0.83402 0.38281 1.48 0.92627 1.938 1.6304 0.4648 0.7041 0.6972 1.5039 0.6972 2.3994h-3.0761c0-0.68359-0.21533-1.2134-0.646-1.5894-0.43066-0.38282-1.0356-0.57422-1.8149-0.57422-0.75195 0-1.3364 0.16064-1.7534 0.48193-0.417 0.31445-0.62549 0.73145-0.62549 1.251 0 0.48535 0.24267 0.89209 0.72802 1.2202 0.49219 0.32813 1.2134 0.63575 2.1636 0.92285 1.75 0.52637 3.0249 1.1792 3.8247 1.9585s1.1997 1.75 1.1997 2.9121c0 1.292-0.4887 2.3071-1.4663 3.0454-0.97751 0.7315-2.2934 1.0972-3.9477 1.0972-1.1484 0-2.1943-0.2085-3.1377-0.6255-0.94336-0.4238-1.6646-1.0015-2.1636-1.7329-0.49219-0.7315-0.73828-1.5791-0.73828-2.543h3.0864c0 1.6475 0.98437 2.4712 2.9531 2.4712 0.73145 0 1.3022-0.147 1.7124-0.4409 0.41016-0.3008 0.61524-0.7178 0.61524-1.251zm23.742-3.2095c0 1.4698-0.2598 2.7583-0.7793 3.8658-0.5195 1.1074-1.2646 1.9619-2.2353 2.5634-0.9639 0.6016-2.0713 0.9024-3.3223 0.9024-1.2373 0-2.3413-0.2974-3.312-0.8921s-1.7227-1.4424-2.2559-2.543c-0.5332-1.1074-0.8032-2.3789-0.81-3.8144v-0.73828c0-1.4697 0.2631-2.7617 0.7895-3.876 0.5332-1.1211 1.2817-1.979 2.2456-2.5737 0.9707-0.60156 2.0781-0.90235 3.3223-0.90235 1.2441 0 2.3481 0.30079 3.312 0.90235 0.9707 0.59472 1.7192 1.4526 2.2456 2.5737 0.5332 1.1143 0.7998 2.4028 0.7998 3.8657v0.66651zm-3.1172-0.67676c0-1.5654-0.2803-2.7549-0.8408-3.5684-0.5606-0.81348-1.3604-1.2202-2.3994-1.2202-1.0322 0-1.8286 0.40332-2.3892 1.21-0.5605 0.79981-0.8442 1.9756-0.8511 3.5274v0.72803c0 1.5244 0.2803 2.7071 0.8409 3.5479 0.5605 0.8408 1.3672 1.2612 2.4199 1.2612 1.0322 0 1.8252-0.4033 2.3789-1.2099 0.5537-0.8135 0.834-1.9961 0.8408-3.5479v-0.72802zm23.373 2.8301c-0.1162 1.6064-0.711 2.871-1.7842 3.7939-1.0664 0.9229-2.4746 1.3843-4.2246 1.3843-1.9141 0-3.4214-0.6426-4.522-1.9278-1.0937-1.2919-1.6406-3.0625-1.6406-5.3115v-0.9126c0-1.4355 0.2529-2.7002 0.7588-3.7939 0.5058-1.0938 1.227-1.9312 2.1635-2.5122 0.9434-0.58789 2.0372-0.88184 3.2813-0.88184 1.7226 0 3.1103 0.46143 4.1631 1.3843 1.0527 0.92285 1.6611 2.2183 1.8252 3.8862h-3.0762c-0.0752-0.96386-0.3452-1.6611-0.8101-2.0918-0.458-0.4375-1.1586-0.65625-2.102-0.65625-1.0254 0-1.7944 0.36914-2.3071 1.1074-0.5059 0.73144-0.7657 1.8696-0.7793 3.4146v1.1279c0 1.6133 0.2426 2.7925 0.728 3.5376 0.4922 0.7451 1.2646 1.1177 2.3174 1.1177 0.9502 0 1.6577-0.2154 2.1225-0.646 0.4717-0.4375 0.7417-1.1109 0.8101-2.02h3.0762zm12.996-1.0152-1.5996 1.7227v4.2656h-3.0762v-14.93h3.0762v6.7676l1.3535-1.856 3.8042-4.9116h3.7837l-5.3013 6.6343 5.4551 8.2954h-3.6607l-3.8349-5.9883zm22.696 2.0713c0-0.581-0.2051-1.0254-0.6153-1.333-0.4101-0.3145-1.1484-0.6426-2.2148-0.98438-1.0664-0.34863-1.9107-0.69042-2.5327-1.0254-1.6953-0.91601-2.543-2.1499-2.543-3.7017 0-0.80664 0.2256-1.5244 0.6768-2.1533 0.458-0.63574 1.1108-1.1313 1.9585-1.4868 0.8544-0.35547 1.8115-0.53321 2.871-0.53321 1.0665 0 2.0166 0.19483 2.8506 0.58448 0.834 0.38281 1.48 0.92627 1.938 1.6304 0.4649 0.7041 0.6973 1.5039 0.6973 2.3994h-3.0762c0-0.68359-0.2153-1.2134-0.646-1.5894-0.4306-0.38282-1.0356-0.57422-1.8149-0.57422-0.752 0-1.3364 0.16064-1.7534 0.48193-0.417 0.31445-0.6255 0.73145-0.6255 1.251 0 0.48535 0.2426 0.89209 0.728 1.2202 0.4922 0.32813 1.2134 0.63575 2.1636 0.92285 1.75 0.52637 3.0249 1.1792 3.8247 1.9585s1.1997 1.75 1.1997 2.9121c0 1.292-0.4888 2.3071-1.4663 3.0454-0.9776 0.7315-2.2935 1.0972-3.9478 1.0972-1.1484 0-2.1943-0.2085-3.1377-0.6255-0.9433-0.4238-1.6645-1.0015-2.1635-1.7329-0.4922-0.7315-0.7383-1.5791-0.7383-2.543h3.0864c0 1.6475 0.9844 2.4712 2.9531 2.4712 0.7315 0 1.3023-0.147 1.7124-0.4409 0.4102-0.3008 0.6153-0.7178 0.6153-1.251zm10.873-0.1025c0-0.6905 0.1914-1.3296 0.5738-1.9175 0.39-0.5879 1.101-1.2407 2.133-1.9585-0.444-0.59472-0.793-1.1518-1.046-1.6714-0.253-0.52637-0.379-1.0732-0.379-1.6406 0-1.1621 0.366-2.1055 1.097-2.8301 0.738-0.73144 1.73-1.0972 2.974-1.0972 1.114 0 2.027 0.33155 2.738 0.99463 0.717 0.66309 1.076 1.4902 1.076 2.4814 0 1.1894-0.601 2.2388-1.804 3.148l-1.149 0.83056 2.574 2.9942c0.403-0.793 0.605-1.668 0.605-2.625h2.522c0 1.9414-0.448 3.5136-1.343 4.7168l2.235 2.5942h-3.363l-0.769-0.8818c-1.101 0.7246-2.365 1.0869-3.794 1.0869-1.476 0-2.659-0.3863-3.548-1.1587-0.888-0.7793-1.3328-1.8013-1.3328-3.0659zm5.0248 1.8457c0.711 0 1.384-0.1983 2.02-0.5948l-2.943-3.4042-0.216 0.15381c-0.608 0.51954-0.912 1.1313-0.912 1.8354 0 0.5947 0.188 1.0801 0.564 1.4561 0.383 0.3691 0.878 0.5537 1.487 0.5537zm-1.087-9.0747c0 0.5127 0.3 1.1587 0.902 1.938l0.79-0.52295c0.403-0.25976 0.68-0.51269 0.83-0.75879 0.157-0.24609 0.236-0.54003 0.236-0.88183s-0.126-0.63916-0.379-0.89209-0.578-0.3794-0.975-0.3794c-0.423 0-0.765 0.13672-1.025 0.41016-0.253 0.27344-0.379 0.63574-0.379 1.0869zm24.49 7.3315c0-0.581-0.205-1.0254-0.615-1.333-0.41-0.3145-1.149-0.6426-2.215-0.98438-1.066-0.34863-1.911-0.69042-2.533-1.0254-1.695-0.91601-2.543-2.1499-2.543-3.7017 0-0.80664 0.226-1.5244 0.677-2.1533 0.458-0.63574 1.111-1.1313 1.959-1.4868 0.854-0.35547 1.811-0.53321 2.871-0.53321 1.066 0 2.016 0.19483 2.85 0.58448 0.834 0.38281 1.48 0.92627 1.938 1.6304 0.465 0.7041 0.698 1.5039 0.698 2.3994h-3.077c0-0.68359-0.215-1.2134-0.646-1.5894-0.43-0.38282-1.035-0.57422-1.815-0.57422-0.751 0-1.336 0.16064-1.753 0.48193-0.417 0.31445-0.625 0.73145-0.625 1.251 0 0.48535 0.242 0.89209 0.728 1.2202 0.492 0.32813 1.213 0.63575 2.163 0.92285 1.75 0.52637 3.025 1.1792 3.825 1.9585s1.2 1.75 1.2 2.9121c0 1.292-0.489 2.3071-1.467 3.0454-0.977 0.7315-2.293 1.0972-3.947 1.0972-1.149 0-2.195-0.2085-3.138-0.6255-0.944-0.4238-1.665-1.0015-2.164-1.7329-0.492-0.7315-0.738-1.5791-0.738-2.543h3.086c0 1.6475 0.985 2.4712 2.954 2.4712 0.731 0 1.302-0.147 1.712-0.4409 0.41-0.3008 0.615-0.7178 0.615-1.251zm23.629 3.917h-3.076v-6.3984h-5.998v6.3984h-3.077v-14.93h3.077v6.0498h5.998v-6.0498h3.076v14.93zm21.261-7.1265c0 1.4698-0.26 2.7583-0.78 3.8658-0.519 1.1074-1.264 1.9619-2.235 2.5634-0.964 0.6016-2.071 0.9024-3.322 0.9024-1.238 0-2.342-0.2974-3.312-0.8921-0.971-0.5947-1.723-1.4424-2.256-2.543-0.533-1.1074-0.803-2.3789-0.81-3.8144v-0.73828c0-1.4697 0.263-2.7617 0.789-3.876 0.534-1.1211 1.282-1.979 2.246-2.5737 0.971-0.60156 2.078-0.90235 3.322-0.90235s2.348 0.30079 3.312 0.90235c0.971 0.59472 1.72 1.4526 2.246 2.5737 0.533 1.1143 0.8 2.4028 0.8 3.8657v0.66651zm-3.118-0.67676c0-1.5654-0.28-2.7549-0.84-3.5684-0.561-0.81348-1.361-1.2202-2.4-1.2202-1.032 0-1.828 0.40332-2.389 1.21-0.56 0.79981-0.844 1.9756-0.851 3.5274v0.72803c0 1.5244 0.28 2.7071 0.841 3.5479 0.56 0.8408 1.367 1.2612 2.42 1.2612 1.032 0 1.825-0.4033 2.379-1.2099 0.553-0.8135 0.834-1.9961 0.84-3.5479v-0.72802zm20.635 1.333h-5.906v3.999h6.932v2.4712h-10.008v-14.93h9.987v2.4917h-6.911v3.5581h5.906v2.4097zm16.872 2.5532c0-0.581-0.205-1.0254-0.615-1.333-0.41-0.3145-1.148-0.6426-2.215-0.98438-1.066-0.34863-1.91-0.69042-2.533-1.0254-1.695-0.91601-2.543-2.1499-2.543-3.7017 0-0.80664 0.226-1.5244 0.677-2.1533 0.458-0.63574 1.111-1.1313 1.959-1.4868 0.854-0.35547 1.811-0.53321 2.871-0.53321 1.066 0 2.016 0.19483 2.85 0.58448 0.834 0.38281 1.48 0.92627 1.938 1.6304 0.465 0.7041 0.698 1.5039 0.698 2.3994h-3.077c0-0.68359-0.215-1.2134-0.646-1.5894-0.43-0.38282-1.035-0.57422-1.814-0.57422-0.752 0-1.337 0.16064-1.754 0.48193-0.417 0.31445-0.625 0.73145-0.625 1.251 0 0.48535 0.242 0.89209 0.728 1.2202 0.492 0.32813 1.213 0.63575 2.163 0.92285 1.75 0.52637 3.025 1.1792 3.825 1.9585s1.2 1.75 1.2 2.9121c0 1.292-0.489 2.3071-1.467 3.0454-0.977 0.7315-2.293 1.0972-3.947 1.0972-1.149 0-2.195-0.2085-3.138-0.6255-0.943-0.4238-1.665-1.0015-2.164-1.7329-0.492-0.7315-0.738-1.5791-0.738-2.543h3.086c0 1.6475 0.985 2.4712 2.954 2.4712 0.731 0 1.302-0.147 1.712-0.4409 0.41-0.3008 0.615-0.7178 0.615-1.251z" clip-path="url(#clipPath1065)"/>
 <text transform="scale(1.234 .81035)" x="7.4289651" y="15.936583" font-family="Lobster" font-size="20.521px" font-weight="bold" stroke-width="1.306" style="line-height:1.25" xml:space="preserve"><tspan x="7.4289651" y="15.936583" font-size="20.521px" stroke-width="1.306">Candiesbyjami.com</tspan></text>
</svg>
