<svg
   id="letters-hero-big"
   version="1.1"
   viewBox="0 0 1159 453"
   xmlns="http://www.w3.org/2000/svg"
   xmlns:svg="http://www.w3.org/2000/svg">
  <defs
     id="defs21">
    <rect
       x="24.046686"
       y="18.933312"
       width="842.33683"
       height="164.57337"
       id="rect9203" />
    <rect
       x="24.046686"
       y="18.933311"
       width="842.33685"
       height="164.57336"
       id="rect9203-9" />
    <rect
       x="24.046686"
       y="18.933311"
       width="842.33685"
       height="164.57336"
       id="rect9203-6" />
    <rect
       x="24.046686"
       y="18.933311"
       width="842.33685"
       height="164.57336"
       id="rect9203-6-0" />
  </defs>
  <text
     xml:space="preserve"
     id="text9201"
     style="font-style:normal;font-variant:normal;font-weight:normal;font-stretch:normal;font-size:133.333px;line-height:1.25;font-family:'Homemade Apple';-inkscape-font-specification:'Homemade Apple, Normal';font-variant-ligatures:normal;font-variant-caps:normal;font-variant-numeric:normal;font-variant-east-asian:normal;white-space:pre;shape-inside:url(#rect9203);fill:#d35f5f;fill-opacity:1;stroke:none"
     transform="matrix(1.0451301,0,0,1.1103044,21.346172,6.2479606)"><tspan
       x="24.046875"
       y="115.4708"
       id="tspan12367">Caramel</tspan></text>
  <text
     xml:space="preserve"
     id="text9201-8"
     style="font-style:normal;font-variant:normal;font-weight:normal;font-stretch:normal;font-size:133.333px;line-height:1.25;font-family:'Homemade Apple';-inkscape-font-specification:'Homemade Apple, Normal';font-variant-ligatures:normal;font-variant-caps:normal;font-variant-numeric:normal;font-variant-east-asian:normal;white-space:pre;shape-inside:url(#rect9203-6);fill:#d35f5f;fill-opacity:1;stroke:none"
     transform="matrix(0.98717179,0,0,0.96259918,404.29444,235.83847)"><tspan
       x="24.046875"
       y="115.4708"
       id="tspan12369">perfected.</tspan></text>
  <g
     aria-label=". . ."
     transform="matrix(1.2604253,0,0,1.1367104,77.214119,211.8486)"
     id="text9201-8-2"
     style="font-size:133.333px;line-height:1.25;font-family:'Homemade Apple';-inkscape-font-specification:'Homemade Apple, Normal';white-space:pre;shape-inside:url(#rect9203-6-0);fill:#d35f5f">
    <path
       d="m 34.593723,106.09582 q -0.130208,1.95312 -0.520832,4.55728 -0.390624,2.60416 -1.432288,4.8177 -1.041664,2.21354 -2.734368,3.77603 -1.692704,1.5625 -4.427072,1.30208 -1.562496,-0.13021 -2.473952,-0.91145 -1.041664,-0.78125 -1.692704,-1.95312 -0.65104,-1.17188 -0.911456,-2.47396 -0.390624,-1.43228 -0.390624,-2.73436 v -2.73437 q 0.390624,-1.82291 2.213536,-4.03645 1.692704,-2.34374 3.515616,-3.38541 1.95312,-1.04166 3.515616,0 1.562496,1.04167 1.692704,5.72915 0.911456,-0.78124 1.692704,-1.56249 0.781248,-0.91146 1.95312,-0.39063 z"
       style="font-size:133.333px;line-height:1.25;font-family:'Homemade Apple';-inkscape-font-specification:'Homemade Apple, Normal';white-space:pre;shape-inside:url(#rect9203-6-0);fill:#d35f5f"
       id="path12220" />
    <path
       d="m 117.1456,106.09582 q -0.13021,1.95312 -0.52084,4.55728 -0.39062,2.60416 -1.43228,4.8177 -1.04167,2.21354 -2.73437,3.77603 -1.69271,1.5625 -4.42707,1.30208 -1.5625,-0.13021 -2.47396,-0.91145 -1.04166,-0.78125 -1.6927,-1.95312 -0.65104,-1.17188 -0.91146,-2.47396 -0.39062,-1.43228 -0.39062,-2.73436 v -2.73437 q 0.39062,-1.82291 2.21354,-4.03645 1.6927,-2.34374 3.51561,-3.38541 1.95312,-1.04166 3.51562,0 1.56249,1.04167 1.6927,5.72915 0.91146,-0.78124 1.69271,-1.56249 0.78124,-0.91146 1.95312,-0.39063 z"
       style="font-size:133.333px;line-height:1.25;font-family:'Homemade Apple';-inkscape-font-specification:'Homemade Apple, Normal';white-space:pre;shape-inside:url(#rect9203-6-0);fill:#d35f5f"
       id="path12222" />
    <path
       d="m 199.69747,106.09582 q -0.13021,1.95312 -0.52083,4.55728 -0.39063,2.60416 -1.43229,4.8177 -1.04167,2.21354 -2.73437,3.77603 -1.6927,1.5625 -4.42707,1.30208 -1.5625,-0.13021 -2.47395,-0.91145 -1.04167,-0.78125 -1.69271,-1.95312 -0.65104,-1.17188 -0.91145,-2.47396 -0.39063,-1.43228 -0.39063,-2.73436 v -2.73437 q 0.39063,-1.82291 2.21354,-4.03645 1.6927,-2.34374 3.51561,-3.38541 1.95312,-1.04166 3.51562,0 1.5625,1.04167 1.6927,5.72915 0.91146,-0.78124 1.69271,-1.56249 0.78125,-0.91146 1.95312,-0.39063 z"
       style="font-size:133.333px;line-height:1.25;font-family:'Homemade Apple';-inkscape-font-specification:'Homemade Apple, Normal';white-space:pre;shape-inside:url(#rect9203-6-0);fill:#d35f5f"
       id="path12224" />
  </g>
</svg>
